<?xml version="1.0" encoding="UTF-8" standalone="no"?>
<!-- Created with Inkscape (http://www.inkscape.org/) -->

<svg
   width="1024mm"
   height="1024mm"
   viewBox="0 0 1024 1024"
   version="1.1"
   id="svg5"
   inkscape:version="1.1.1 (3bf5ae0d25, 2021-09-20)"
   sodipodi:docname="mnp.svg"
   inkscape:export-filename="/home/daniel/Documents/mnplogo.png"
   inkscape:export-xdpi="95"
   inkscape:export-ydpi="95"
   xmlns:inkscape="http://www.inkscape.org/namespaces/inkscape"
   xmlns:sodipodi="http://sodipodi.sourceforge.net/DTD/sodipodi-0.dtd"
   xmlns="http://www.w3.org/2000/svg"
   xmlns:svg="http://www.w3.org/2000/svg">
  <sodipodi:namedview
     id="namedview7"
     pagecolor="#ffffff"
     bordercolor="#666666"
     borderopacity="1.0"
     inkscape:pageshadow="2"
     inkscape:pageopacity="0.0"
     inkscape:pagecheckerboard="0"
     inkscape:document-units="px"
     showgrid="false"
     showguides="false"
     inkscape:zoom="0.13574952"
     inkscape:cx="1646.4147"
     inkscape:cy="2681.4091"
     inkscape:window-width="1884"
     inkscape:window-height="1050"
     inkscape:window-x="36"
     inkscape:window-y="3"
     inkscape:window-maximized="1"
     inkscape:current-layer="text1915" />
  <defs
     id="defs2">
    <rect
       x="1229.1795"
       y="2092.7349"
       width="309.39335"
       height="44.199051"
       id="rect1630" />
    <rect
       x="-2404.9636"
       y="-1681.5058"
       width="8308.1931"
       height="5925.1281"
       id="rect33495" />
    <rect
       x="1995.4985"
       y="3407.2449"
       width="1380.725"
       height="2536.0334"
       id="rect22039" />
  </defs>
  <g
     inkscape:label="Ebene 1"
     inkscape:groupmode="layer"
     id="layer1">
    <g
       id="g47893"
       transform="matrix(1.0238482,0,0,1.0238482,-4.358816,-16.269765)"
       style="stroke-width:0.976707">
      <g
         aria-label="m|np"
         transform="scale(0.99903623,1.0009647)"
         id="text1915"
         style="font-size:358.633px;line-height:1.25;letter-spacing:0px;word-spacing:0px;fill:#f26822;stroke:#ffffff;stroke-width:0.258421">
        <g
           id="g8502">
          <g
             id="g834"
             inkscape:export-filename="/home/daniel/Documents/g834.png"
             inkscape:export-xdpi="95.011292"
             inkscape:export-ydpi="95.011292"
             style="stroke-width:0.976707"
             transform="scale(1.0009647,0.99903623)">
            <circle
               style="fill:#4d4d4d;fill-opacity:1;stroke:#f26822;stroke-width:0.258825;stroke-linecap:round;stroke-linejoin:round;stroke-opacity:1"
               id="path25077"
               cx="509.68332"
               cy="518.76648"
               r="490.36508" />
          </g>
          <path
             d="M 64.766944,615.4325 V 425.3758 h 30.315792 l 3.109312,24.87449 h 0.777328 q 6.607284,-12.82591 16.323884,-20.98785 10.10527,-8.55061 26.42916,-8.55061 27.59514,0 34.97976,32.64778 7.77328,-14.76924 17.48988,-23.70851 10.10526,-8.93927 26.42915,-8.93927 20.21053,0 31.09312,15.54656 11.27125,15.1579 11.27125,43.91903 V 615.4325 h -37.7004 V 482.89807 q 0,-29.1498 -17.48988,-29.1498 -8.55061,0 -14.76924,6.60729 -5.82996,6.60729 -12.43724,19.82186 V 615.4325 H 147.16371 V 482.89807 q 0,-29.1498 -17.10121,-29.1498 -8.55061,0 -15.1579,6.60729 -6.21862,6.60729 -12.43725,19.82186 V 615.4325 Z"
             style="fill:#ff6600"
             id="path7534" />
          <path
             d="M 377.25221,712.5985 V 323.93449 h 34.20244 V 712.5985 Z"
             style="fill:#ffffff"
             id="path7536" />
          <path
             d="M 545.15448,615.4325 V 425.3758 h 31.48178 l 3.10931,30.70445 h 1.55466 q 14.38057,-14.76923 31.09312,-24.87449 16.71255,-10.49393 38.8664,-10.49393 33.4251,0 48.97166,20.21053 15.54656,19.82186 15.54656,56.74494 V 615.4325 H 677.30024 V 502.71993 q 0,-24.87449 -8.93927,-36.53441 -8.93928,-12.04859 -30.70446,-12.04859 -15.1579,0 -27.20648,7.77328 -12.04858,7.38462 -26.81782,22.54252 V 615.4325 Z"
             style="fill:#ffffff"
             id="path7538" />
          <path
             d="M 778.35229,693.1653 V 425.3758 h 31.48179 l 3.10931,23.31984 h 1.16599 q 12.82591,-12.43725 29.53846,-20.21053 17.10122,-7.77328 33.81377,-7.77328 37.70041,0 57.91094,26.42915 20.21053,26.42915 20.21053,70.34819 0,32.25911 -12.04859,55.57895 -12.04858,22.93118 -31.48178,34.97976 -19.4332,12.04858 -41.97571,12.04858 -13.21458,0 -27.59515,-6.21862 -14.38057,-6.21862 -26.42915,-17.10122 h -1.16599 l 1.94332,34.20244 v 62.18624 z m 84.34009,-104.93928 q 22.93118,0 38.08907,-18.26721 15.1579,-18.26721 15.1579,-52.08098 0,-29.92713 -11.65992,-47.41701 -11.65992,-17.48988 -37.31175,-17.48988 -11.65992,0 -24.48583,6.21863 -12.82591,5.82996 -25.65182,19.4332 v 89.78138 q 12.04858,10.88259 24.48583,15.54656 12.43725,4.27531 21.37652,4.27531 z"
             style="fill:#ffffff"
             id="path7540" />
        </g>
      </g>
      <text
         xml:space="preserve"
         transform="matrix(0.25842046,0,0,0.25842046,4.2572874,15.890798)"
         id="text1628"
         style="font-style:normal;font-weight:normal;font-size:40px;line-height:1.25;font-family:sans-serif;letter-spacing:0px;word-spacing:0px;white-space:pre;shape-inside:url(#rect1630);fill:#000000;fill-opacity:1;stroke:none" />
    </g>
    <text
       xml:space="preserve"
       transform="scale(0.26458333)"
       id="text22037"
       style="font-style:normal;font-weight:normal;font-size:40px;line-height:1.25;font-family:sans-serif;letter-spacing:0px;word-spacing:0px;white-space:pre;shape-inside:url(#rect22039);fill:#000000;fill-opacity:1;stroke:none" />
    <text
       xml:space="preserve"
       transform="scale(0.26458333)"
       id="text33493"
       style="font-style:normal;font-weight:normal;font-size:40px;line-height:1.25;font-family:sans-serif;letter-spacing:0px;word-spacing:0px;white-space:pre;shape-inside:url(#rect33495);fill:#000000;fill-opacity:1;stroke:none" />
  </g>
</svg>
