<?xml version="1.0" encoding="UTF-8" standalone="no"?>
<!-- Created with Inkscape (http://www.inkscape.org/) -->

<svg
   width="1024mm"
   height="1024mm"
   viewBox="0 0 1024 1024"
   version="1.1"
   id="svg5"
   inkscape:version="1.1.1 (3bf5ae0d25, 2021-09-20)"
   sodipodi:docname="mnp.svg"
   inkscape:export-xdpi="95"
   inkscape:export-ydpi="95"
   xmlns:inkscape="http://www.inkscape.org/namespaces/inkscape"
   xmlns:sodipodi="http://sodipodi.sourceforge.net/DTD/sodipodi-0.dtd"
   xmlns="http://www.w3.org/2000/svg"
   xmlns:svg="http://www.w3.org/2000/svg">
  <sodipodi:namedview
     id="namedview7"
     pagecolor="#ffffff"
     bordercolor="#666666"
     borderopacity="1.0"
     inkscape:pageshadow="2"
     inkscape:pageopacity="0.0"
     inkscape:pagecheckerboard="0"
     inkscape:document-units="px"
     showgrid="false"
     showguides="false"
     inkscape:zoom="0.11313708"
     inkscape:cx="1020.8854"
     inkscape:cy="2687.0058"
     inkscape:window-width="1884"
     inkscape:window-height="1050"
     inkscape:window-x="36"
     inkscape:window-y="3"
     inkscape:window-maximized="1"
     inkscape:current-layer="text1915" />
  <defs
     id="defs2">
    <rect
       x="1229.1795"
       y="2092.7349"
       width="309.39335"
       height="44.199051"
       id="rect1630" />
    <rect
       x="-2404.9636"
       y="-1681.5058"
       width="8308.1931"
       height="5925.1281"
       id="rect33495" />
    <rect
       x="1995.4985"
       y="3407.2449"
       width="1380.725"
       height="2536.0334"
       id="rect22039" />
  </defs>
  <g
     inkscape:label="Ebene 1"
     inkscape:groupmode="layer"
     id="layer1">
    <g
       id="g47893"
       transform="matrix(1.0238482,0,0,1.0238482,-4.358816,-16.269765)"
       style="stroke-width:0.976707">
      <g
         aria-label="m|np"
         transform="scale(0.99903623,1.0009647)"
         id="text1915"
         style="font-size:358.633px;line-height:1.25;letter-spacing:0px;word-spacing:0px;fill:#f26822;stroke:#ffffff;stroke-width:0.258421">
        <g
           id="g834"
           inkscape:export-xdpi="95.011292"
           inkscape:export-ydpi="95.011292"
           style="stroke-width:0.976707"
           transform="scale(1.0009647,0.99903623)">
          <circle
             style="fill:#4d4d4d;fill-opacity:1;stroke:#f26822;stroke-width:0.258825;stroke-linecap:round;stroke-linejoin:round;stroke-opacity:1"
             id="path25077"
             cx="509.68332"
             cy="518.76648"
             r="490.36508" />
        </g>
        <g
           id="g856"
           transform="translate(-1.3701919,-2.3981771)">
          <path
             d="M 106.81499,618.02566 V 427.5876 h 30.37664 l 3.11555,24.9244 h 0.77889 q 6.62054,-12.85165 16.35665,-21.02996 10.12554,-8.56777 26.4822,-8.56777 27.65052,0 35.04997,32.71329 7.78887,-14.79887 17.52498,-23.75608 10.12554,-8.95721 26.48219,-8.95721 20.25109,0 31.15553,15.57775 11.29387,15.18832 11.29387,44.00716 V 618.02566 H 267.65539 V 485.22529 q 0,-29.20829 -17.52497,-29.20829 -8.56778,0 -14.79889,6.62055 -5.84167,6.62055 -12.4622,19.86163 v 135.52648 h -33.4922 V 485.22529 q 0,-29.20829 -17.13554,-29.20829 -8.56776,0 -15.18831,6.62055 -6.23111,6.62055 -12.46222,19.86163 v 135.52648 z"
             style="fill:#ff6600;stroke-width:0.258422"
             id="path7534" />
          <path
             d="M 397.74091,715.38663 V 325.94274 h 34.27108 v 389.44389 z"
             style="fill:#ffffff;stroke-width:0.258422"
             id="path7536" />
          <path
             d="M 523.31379,618.02566 V 427.5876 h 31.54497 l 3.11555,30.76606 h 1.55777 q 14.40944,-14.79887 31.15552,-24.9244 16.7461,-10.51499 38.94442,-10.51499 33.49218,0 49.06994,20.25108 15.57777,19.86164 15.57777,56.8588 V 618.02566 H 655.72477 V 505.08693 q 0,-24.92441 -8.95722,-36.60773 -8.95721,-12.07276 -30.76607,-12.07276 -15.18833,0 -27.2611,7.78888 -12.07275,7.39943 -26.87164,22.58775 v 131.24259 z"
             style="fill:#ffffff;stroke-width:0.258422"
             id="path7538" />
          <path
             d="M 756.97964,695.91443 V 427.5876 h 31.54497 l 3.11555,23.36663 h 1.16833 q 12.85166,-12.46221 29.59774,-20.25109 17.13555,-7.78887 33.88164,-7.78887 37.77608,0 58.02717,26.48218 20.25109,26.48218 20.25109,70.48935 0,32.32384 -12.07276,55.69048 -12.07277,22.97718 -31.54497,35.04994 -19.4722,12.07276 -42.05996,12.07276 -13.2411,0 -27.65054,-6.2311 -14.40942,-6.2311 -26.48219,-17.13553 h -1.16833 l 1.94722,34.27107 v 62.31101 z m 84.50937,-105.14985 q 22.9772,0 38.16551,-18.30385 15.18832,-18.30387 15.18832,-52.18549 0,-29.98718 -11.68332,-47.51216 -11.68332,-17.52497 -37.38664,-17.52497 -11.68332,0 -24.53498,6.23111 -12.85164,5.84166 -25.7033,19.47219 v 89.96154 q 12.07277,10.90442 24.53497,15.57775 12.46222,4.28388 21.41944,4.28388 z"
             style="fill:#ffffff;stroke-width:0.258422"
             id="path7540" />
        </g>
      </g>
      <text
         xml:space="preserve"
         transform="matrix(0.25842046,0,0,0.25842046,4.2572874,15.890798)"
         id="text1628"
         style="font-style:normal;font-weight:normal;font-size:40px;line-height:1.25;font-family:sans-serif;letter-spacing:0px;word-spacing:0px;white-space:pre;shape-inside:url(#rect1630);fill:#000000;fill-opacity:1;stroke:none" />
    </g>
    <text
       xml:space="preserve"
       transform="scale(0.26458333)"
       id="text22037"
       style="font-style:normal;font-weight:normal;font-size:40px;line-height:1.25;font-family:sans-serif;letter-spacing:0px;word-spacing:0px;white-space:pre;shape-inside:url(#rect22039);fill:#000000;fill-opacity:1;stroke:none" />
    <text
       xml:space="preserve"
       transform="scale(0.26458333)"
       id="text33493"
       style="font-style:normal;font-weight:normal;font-size:40px;line-height:1.25;font-family:sans-serif;letter-spacing:0px;word-spacing:0px;white-space:pre;shape-inside:url(#rect33495);fill:#000000;fill-opacity:1;stroke:none" />
  </g>
</svg>
